<svg xmlns="http://www.w3.org/2000/svg" viewBox="0 0 1024 1024">
  <defs>
    <linearGradient id="g" x1="232" y1="200" x2="792" y2="600" gradientUnits="userSpaceOnUse">
      <stop offset="0" stop-color="#C77DFF"/>
      <stop offset="1" stop-color="#29B6F6"/>
    </linearGradient>
  </defs>
  <path fill="url(#g)" d="M232 512C232 336 358 208 512 208s280 128 280 304c0 22-10 40-28 40-24 0-30-28-56-28s-34 28-62 28-36-28-64-28-42 28-70 28-42-28-70-28-36 28-64 28-36-28-62-28-32 28-56 28c-18 0-28-18-28-40z"/>
</svg>
